<?xml version="1.0" standalone="yes"?>
<svg xmlns="http://www.w3.org/2000/svg" width="500" height="500">
<path style="fill:#efc022; stroke:none;" d="M0 0L0 500L500 500L500 0L0 0z"/>
<path style="fill:#c9ae4f; stroke:none;" d="M386 104C379.424 120.979 388.251 142.144 384 160C387.399 157.03 386 150.241 386 146C386 135.839 381.831 113.143 388 105L386 104M390 104L390 105L428 105C417.964 100.789 400.911 104 390 104M434 104L434 105C436.996 107.996 436 112.89 436 117L436 146C436 150.189 434.036 158.936 439 160L439 159C433.399 151.607 436.389 129.217 437.159 120.004C437.628 114.387 439.876 107.143 434 104M116 105L115 110L116 110L120 106L116 105M247 105L247 106L250 106L247 105z"/>
<path style="fill:#c01e1f; stroke:none;" d="M250 105.532C217.626 113.191 228.762 161.39 261 154.518C292.25 147.856 280.306 98.3631 250 105.532z"/>
<path style="fill:#c9ae4f; stroke:none;" d="M260 105L260 106L263 106L260 105z"/>
<path style="fill:#6d5a1c; stroke:none;" d="M386.667 105.333L387.333 105.667L386.667 105.333z"/>
<path style="fill:#191510; stroke:none;" d="M386 160L362.603 161.028L361 174L361 210L386 210L386 250L387.603 263.972L401 265L436 265L436 210L461 210L461 174L459.397 161.028L436 160L436 106L399 106L387.028 106.782L386 121L386 160z"/>
<path style="fill:#6d5a1c; stroke:none;" d="M390 105L390 106L430 106C419.488 101.589 401.434 105 390 105M431 105L431 106L436 106L431 105M116 109L120 108C118.335 105.709 117.319 106.887 116 109z"/>
<path style="fill:#c9ae4f; stroke:none;" d="M245 106L246 107L245 106z"/>
<path style="fill:#6d5a1c; stroke:none;" d="M246 106L247 107L246 106z"/>
<path style="fill:#c9ae4f; stroke:none;" d="M264 106L265 107L264 106z"/>
<path style="fill:#191510; stroke:none;" d="M118 107L73.3603 195.911L39 265L197 265L180.883 231L141.889 153L118 107z"/>
<path style="fill:#c9ae4f; stroke:none;" d="M120 107L125 115L120 107M241 108L241 109L245 108L241 108M265 107L265 108L269 109L269 108L265 107z"/>
<path style="fill:#6d5a1c; stroke:none;" d="M243 108L244 109L243 108M120.333 109.667L120.667 110.333L120.333 109.667z"/>
<path style="fill:#c9ae4f; stroke:none;" d="M240 109L241 110L240 109M269 109L270 110L269 109z"/>
<path style="fill:#6d5a1c; stroke:none;" d="M115 110L116 111L115 110M239 110L240 111L239 110z"/>
<path style="fill:#c9ae4f; stroke:none;" d="M270 110L275 115L270 110M114 111L115 112L114 111z"/>
<path style="fill:#6d5a1c; stroke:none;" d="M121.333 111.667L121.667 112.333L121.333 111.667z"/>
<path style="fill:#c9ae4f; stroke:none;" d="M236 111L236 113L238 111L236 111z"/>
<path style="fill:#6d5a1c; stroke:none;" d="M114.333 112.667L114.667 113.333L114.333 112.667z"/>
<path style="fill:#c9ae4f; stroke:none;" d="M113 113L105 130L106 130L113 113z"/>
<path style="fill:#6d5a1c; stroke:none;" d="M122 113L124 116L122 113z"/>
<path style="fill:#c9ae4f; stroke:none;" d="M235 113L236 114L235 113M234 114L231 120L232 120L234 114z"/>
<path style="fill:#6d5a1c; stroke:none;" d="M113 115L114 116L113 115z"/>
<path style="fill:#c9ae4f; stroke:none;" d="M275 115L276 116L275 115z"/>
<path style="fill:#6d5a1c; stroke:none;" d="M112.333 116.667L112.667 117.333L112.333 116.667z"/>
<path style="fill:#c9ae4f; stroke:none;" d="M124 116C128.752 127.358 135.569 147.129 145 155L131.373 128.001L124 116z"/>
<path style="fill:#6d5a1c; stroke:none;" d="M275 116L276 117L275 116M124.333 117.667L124.667 118.333L124.333 117.667M233 117L234 118L233 117z"/>
<path style="fill:#c9ae4f; stroke:none;" d="M276 117L277 120L278 120L276 117z"/>
<path style="fill:#6d5a1c; stroke:none;" d="M111 118L112 119L111 118M276 118L277 119L276 118M125 119L126 120L125 119M232 119L233 120L232 119M110 120L111 121L110 120z"/>
<path style="fill:#c9ae4f; stroke:none;" d="M278 120L279 125L280 125L278 120z"/>
<path style="fill:#6d5a1c; stroke:none;" d="M126.333 121.667L126.667 122.333L126.333 121.667z"/>
<path style="fill:#c9ae4f; stroke:none;" d="M230 121L230 124L231 124L230 121z"/>
<path style="fill:#6d5a1c; stroke:none;" d="M109.333 122.667L109.667 123.333L109.333 122.667M127 123L129 126L127 123M108 125L109 126L108 125M107 126L106 129L107 126M129 127L130 128L129 127z"/>
<path style="fill:#c9ae4f; stroke:none;" d="M229 127L229 133L230 133L229 127z"/>
<path style="fill:#6d5a1c; stroke:none;" d="M130.333 129.667L130.667 130.333L130.333 129.667M105 130L106 131L105 130z"/>
<path style="fill:#c9ae4f; stroke:none;" d="M104 131L99 142L100 142L104 131z"/>
<path style="fill:#6d5a1c; stroke:none;" d="M131.333 131.667L131.667 132.333L131.333 131.667M104.333 132.667L104.667 133.333L104.333 132.667M132 133L134 136L132 133M103 135L104 136L103 135M102.333 136.667L102.667 137.333L102.333 136.667z"/>
<path style="fill:#c9ae4f; stroke:none;" d="M230 136L230 139L231 139L230 136M279 136L279 140L280 140L279 136z"/>
<path style="fill:#6d5a1c; stroke:none;" d="M134.333 137.667L134.667 138.333L134.333 137.667M101 138L102 139L101 138M135 139L136 140L135 139M100 140L101 141L100 140z"/>
<path style="fill:#c9ae4f; stroke:none;" d="M231 140L233 145L234 145L231 140z"/>
<path style="fill:#6d5a1c; stroke:none;" d="M232 140L233 141L232 140M277 140L278 141L277 140z"/>
<path style="fill:#c9ae4f; stroke:none;" d="M278 140L279 141L278 140z"/>
<path style="fill:#6d5a1c; stroke:none;" d="M136 141L137 145L138 145L136 141z"/>
<path style="fill:#c9ae4f; stroke:none;" d="M277 141L276 144L277 141z"/>
<path style="fill:#6d5a1c; stroke:none;" d="M99 142L96 149L97 149L99 142z"/>
<path style="fill:#c9ae4f; stroke:none;" d="M98 143L99 144L98 143M97.3333 144.667L97.6667 145.333L97.3333 144.667M275 144L276 145L275 144z"/>
<path style="fill:#6d5a1c; stroke:none;" d="M138 145L139 146L138 145z"/>
<path style="fill:#c9ae4f; stroke:none;" d="M234 145L235 146L234 145M96.3333 146.667L96.6667 147.333L96.3333 146.667M235 146L237 149L235 146M274 146L275 147L274 146z"/>
<path style="fill:#6d5a1c; stroke:none;" d="M139 147L140 148L139 147M236 147L237 148L236 147z"/>
<path style="fill:#c9ae4f; stroke:none;" d="M273 147L272 149L274 149L273 147z"/>
<path style="fill:#6d5a1c; stroke:none;" d="M237 148L238 149L237 148z"/>
<path style="fill:#c9ae4f; stroke:none;" d="M95 149L96 150L95 149M238 149L240 151L238 149z"/>
<path style="fill:#6d5a1c; stroke:none;" d="M239 149L240 150L239 149z"/>
<path style="fill:#c9ae4f; stroke:none;" d="M271 149L272 150L271 149z"/>
<path style="fill:#6d5a1c; stroke:none;" d="M95 150L94 154L95 154L95 150M140 150L141 151L140 150z"/>
<path style="fill:#c9ae4f; stroke:none;" d="M269 150L266 152L266 153L269 150M94 151L95 152L94 151z"/>
<path style="fill:#6d5a1c; stroke:none;" d="M141.333 151.667L141.667 152.333L141.333 151.667z"/>
<path style="fill:#c9ae4f; stroke:none;" d="M240 151L243 153L240 151z"/>
<path style="fill:#6d5a1c; stroke:none;" d="M267 151L268 152L267 151z"/>
<path style="fill:#c9ae4f; stroke:none;" d="M93 152L85 170L86 170L93 152z"/>
<path style="fill:#6d5a1c; stroke:none;" d="M243 152L244 153L243 152M142 153L144 156L142 153z"/>
<path style="fill:#c9ae4f; stroke:none;" d="M244 153L245 154L244 153M265 153L266 154L265 153M247.667 154.333L248.333 154.667L247.667 154.333M261 154L261 155L264 155L261 154z"/>
<path style="fill:#6d5a1c; stroke:none;" d="M93 155L94 156L93 155z"/>
<path style="fill:#c9ae4f; stroke:none;" d="M250 155L250 156L260 156L250 155z"/>
<path style="fill:#6d5a1c; stroke:none;" d="M92.3333 156.667L92.6667 157.333L92.3333 156.667z"/>
<path style="fill:#c9ae4f; stroke:none;" d="M144 156L148 164L149 164L144 156z"/>
<path style="fill:#6d5a1c; stroke:none;" d="M144 157L145 158L144 157M91 158L92 159L91 158M145 159L146 160L145 159z"/>
<path style="fill:#c9ae4f; stroke:none;" d="M300 159L300 160L303 160L300 159z"/>
<path style="fill:#6d5a1c; stroke:none;" d="M303 159L303 160L306 160L303 159z"/>
<path style="fill:#c9ae4f; stroke:none;" d="M306 159L306 160L310 160L306 159z"/>
<path style="fill:#6d5a1c; stroke:none;" d="M90 160L91 161L90 160z"/>
<path style="fill:#c9ae4f; stroke:none;" d="M229 160L229 164L230 164L229 160z"/>
<path style="fill:#6d5a1c; stroke:none;" d="M230 160L231 161L230 160z"/>
<path style="fill:#191510; stroke:none;" d="M230 265L280 265L280 190L281 190C285.101 218.211 328.693 212.273 329.737 185C330.838 156.226 287.329 151.082 281 179L278.397 161.028L268 160L241 160L230.603 162.318L230 192L230 265z"/>
<path style="fill:#6d5a1c; stroke:none;" d="M279 160L280 161L279 160z"/>
<path style="fill:#c9ae4f; stroke:none;" d="M284 170L285 170L296 161C290.645 159.764 285.377 165.199 284 170z"/>
<path style="fill:#6d5a1c; stroke:none;" d="M296 160L296 161L299 161L296 160M311.667 160.333L312.333 160.667L311.667 160.333z"/>
<path style="fill:#c9ae4f; stroke:none;" d="M313 160L313 161L324 167C321.48 162.973 317.646 160.75 313 160M360 160L360 211L384 212L384.999 252L385.768 265.012L400 266L436 266L436 265L386 265L386 210L361 210C361 195.951 365.409 172.89 360 160z"/>
<path style="fill:#6d5a1c; stroke:none;" d="M361 160L362 161L361 160M460 160L461 161L460 160z"/>
<path style="fill:#c9ae4f; stroke:none;" d="M461 160L461 210L436 210L436 250L438 265L437.004 227L440.163 212.603L462 211L462 175L461 160z"/>
<path style="fill:#6d5a1c; stroke:none;" d="M146 161L148 166L149 166L146 161M294 161L295 162L294 161M314 161L317 163L314 161M89.3333 162.667L89.6667 163.333L89.3333 162.667M291 164L294 162L291 164M317.667 163.333L318.333 163.667L317.667 163.333M88.3333 164.667L88.6667 165.333L88.3333 164.667M229 164L230 165L229 164M319 164L320 165L319 164z"/>
<path style="fill:#c9ae4f; stroke:none;" d="M229 165L230 166L229 165z"/>
<path style="fill:#6d5a1c; stroke:none;" d="M288 165L289 166L288 165M320 165L321 166L320 165M87 166L86 169L87 166z"/>
<path style="fill:#c9ae4f; stroke:none;" d="M149 166L155 175L149 166z"/>
<path style="fill:#6d5a1c; stroke:none;" d="M229.333 166.667L229.667 167.333L229.333 166.667z"/>
<path style="fill:#c9ae4f; stroke:none;" d="M280 166L280 170L281 170L280 166z"/>
<path style="fill:#6d5a1c; stroke:none;" d="M287 166L288 167L287 166M321 166L326 171L321 166M149 167L150 168L149 167M286 167L287 168L286 167z"/>
<path style="fill:#c9ae4f; stroke:none;" d="M228.667 168.333L229.333 168.667L228.667 168.333z"/>
<path style="fill:#6d5a1c; stroke:none;" d="M285 168L286 169L285 168z"/>
<path style="fill:#c9ae4f; stroke:none;" d="M324 168L325 169L324 168z"/>
<path style="fill:#6d5a1c; stroke:none;" d="M150.333 169.667L150.667 170.333L150.333 169.667M229 169L229 173L230 173L229 169z"/>
<path style="fill:#c9ae4f; stroke:none;" d="M325 169L326 170L325 169z"/>
<path style="fill:#6d5a1c; stroke:none;" d="M85 170L86 171L85 170z"/>
<path style="fill:#c9ae4f; stroke:none;" d="M280 176L281 176L284 170L280 176M326 170L328 173L326 170M84 171L80 180L81 180L84 171z"/>
<path style="fill:#6d5a1c; stroke:none;" d="M151.333 171.667L151.667 172.333L151.333 171.667M283 171L281 176L282 176L283 171M84.3333 172.667L84.6667 173.333L84.3333 172.667M326 172L328 177L329 177L326 172M152 173L154 176L152 173z"/>
<path style="fill:#c9ae4f; stroke:none;" d="M229 173L229 259L230 259L230 200L229 173M328 174L329 175L328 174z"/>
<path style="fill:#6d5a1c; stroke:none;" d="M83 175L84 176L83 175M82.3333 176.667L82.6667 177.333L82.3333 176.667z"/>
<path style="fill:#c9ae4f; stroke:none;" d="M154 176L159 186L160 186L154 176z"/>
<path style="fill:#6d5a1c; stroke:none;" d="M280 176L280 179L281 179L280 176M154.333 177.667L154.667 178.333L154.333 177.667z"/>
<path style="fill:#c9ae4f; stroke:none;" d="M329 177L331 180L329 177z"/>
<path style="fill:#6d5a1c; stroke:none;" d="M81 178L82 179L81 178M155 179L156 180L155 179M329 179L329 182L330 182L329 179M80 180L81 181L80 180z"/>
<path style="fill:#c9ae4f; stroke:none;" d="M79 181L80 182L79 181z"/>
<path style="fill:#6d5a1c; stroke:none;" d="M156 181L157 185L158 185L156 181z"/>
<path style="fill:#c9ae4f; stroke:none;" d="M330 181L330 189L331 189L330 181z"/>
<path style="fill:#6d5a1c; stroke:none;" d="M79 182L76 189L79 182z"/>
<path style="fill:#c9ae4f; stroke:none;" d="M78 183L79 184L78 183M77.3333 184.667L77.6667 185.333L77.3333 184.667z"/>
<path style="fill:#6d5a1c; stroke:none;" d="M158 185L159 186L158 185z"/>
<path style="fill:#c9ae4f; stroke:none;" d="M76.3333 186.667L76.6667 187.333L76.3333 186.667z"/>
<path style="fill:#6d5a1c; stroke:none;" d="M159.333 186.667L159.667 187.333L159.333 186.667z"/>
<path style="fill:#c9ae4f; stroke:none;" d="M160 187L165 195L160 187z"/>
<path style="fill:#6d5a1c; stroke:none;" d="M329 187L329 190L330 190L329 187z"/>
<path style="fill:#c9ae4f; stroke:none;" d="M75.3333 188.667L75.6667 189.333L75.3333 188.667z"/>
<path style="fill:#6d5a1c; stroke:none;" d="M160.333 189.667L160.667 190.333L160.333 189.667M75 190L74 194L75 194L75 190M280.333 190.667L280.667 191.333L280.333 190.667z"/>
<path style="fill:#c9ae4f; stroke:none;" d="M329.333 190.667L329.667 191.333L329.333 190.667M74 191L75 192L74 191z"/>
<path style="fill:#6d5a1c; stroke:none;" d="M161.333 191.667L161.667 192.333L161.333 191.667M328 191L326 196L328 191z"/>
<path style="fill:#c9ae4f; stroke:none;" d="M73 192L71 198L72 198L73 192M280 192L280 200L296 209L296 208L280 192z"/>
<path style="fill:#6d5a1c; stroke:none;" d="M162 193L164 196L162 193M281 194L282 195L281 194z"/>
<path style="fill:#c9ae4f; stroke:none;" d="M328.333 194.667L328.667 195.333L328.333 194.667z"/>
<path style="fill:#6d5a1c; stroke:none;" d="M73 195L74 196L73 195M282 195L283 196L282 195M72 196L71 199L72 196z"/>
<path style="fill:#c9ae4f; stroke:none;" d="M164 196L175 215L164 196z"/>
<path style="fill:#efc022; stroke:none;" d="M281.333 196.667L281.667 197.333L281.333 196.667z"/>
<path style="fill:#6d5a1c; stroke:none;" d="M283.333 196.667L283.667 197.333L283.333 196.667z"/>
<path style="fill:#c9ae4f; stroke:none;" d="M326 196C323.192 202.577 317.769 205.311 312 209L312 210C319.149 207.557 325.461 203.382 328 196L326 196z"/>
<path style="fill:#6d5a1c; stroke:none;" d="M164 197L165 198L164 197M284 198L285 199L284 198M325 198L326 199L325 198z"/>
<path style="fill:#c9ae4f; stroke:none;" d="M70 199L65 210L66 210L70 199z"/>
<path style="fill:#6d5a1c; stroke:none;" d="M165 199L166 200L165 199M324 199L325 200L324 199M70 200L71 201L70 200M285 200L286 201L285 200M323 200L324 201L323 200M166 201L168 206L169 206L166 201M286 201L287 202L286 201M322 201L321 203L323 203L322 201M69.3333 202.667L69.6667 203.333L69.3333 202.667M287 202L289 204L289 202L287 202M320 203L321 204L320 203M289 204L290 205L289 204M319 204L320 205L319 204M68 205L69 206L68 205M291 205L292 206L291 205M317.667 205.333L318.333 205.667L317.667 205.333M67 206L66 209L67 206M293 206L294 207L293 206M315 206L316 207L315 206M169 207L170 208L169 207z"/>
<path style="fill:#c9ae4f; stroke:none;" d="M280 207L280 213L281 213L280 207z"/>
<path style="fill:#6d5a1c; stroke:none;" d="M294 207L294 208L300 209L300 208L294 207M311 208L311 209L315 208L311 208M170.333 209.667L170.667 210.333L170.333 209.667z"/>
<path style="fill:#c9ae4f; stroke:none;" d="M298 209L298 210L301 210L298 209z"/>
<path style="fill:#6d5a1c; stroke:none;" d="M301 209L301 210L308 210L301 209z"/>
<path style="fill:#c9ae4f; stroke:none;" d="M308.667 209.333L309.333 209.667L308.667 209.333z"/>
<path style="fill:#6d5a1c; stroke:none;" d="M65 210L64 214L65 214L65 210z"/>
<path style="fill:#c9ae4f; stroke:none;" d="M64 211L65 212L64 211z"/>
<path style="fill:#6d5a1c; stroke:none;" d="M171.333 211.667L171.667 212.333L171.333 211.667z"/>
<path style="fill:#c9ae4f; stroke:none;" d="M63 213L55 230L56 230L63 213z"/>
<path style="fill:#6d5a1c; stroke:none;" d="M172 213L174 216L172 213M63 215L64 216L63 215M62 216L61 219L62 216z"/>
<path style="fill:#c9ae4f; stroke:none;" d="M174 216C178.777 227.474 185.581 246.925 195 255C190.825 244.574 183.124 222.508 174 216z"/>
<path style="fill:#6d5a1c; stroke:none;" d="M174.333 217.667L174.667 218.333L174.333 217.667M175 219L176 220L175 219z"/>
<path style="fill:#c9ae4f; stroke:none;" d="M280 219L281 220L280 219z"/>
<path style="fill:#6d5a1c; stroke:none;" d="M60 220L61 221L60 220M176.333 221.667L176.667 222.333L176.333 221.667M59.3333 222.667L59.6667 223.333L59.3333 222.667M177.333 223.667L177.667 224.333L177.333 223.667M58 225L59 226L58 225M178 225L179 226L178 225M57 226L56 229L57 226M179 227L180 228L179 227M55 230L54 234L55 234L55 230M180 230L181 231L180 230z"/>
<path style="fill:#c9ae4f; stroke:none;" d="M54 231L55 232L54 231z"/>
<path style="fill:#6d5a1c; stroke:none;" d="M181.333 231.667L181.667 232.333L181.333 231.667z"/>
<path style="fill:#c9ae4f; stroke:none;" d="M53 232L46 248L47 248L53 232z"/>
<path style="fill:#6d5a1c; stroke:none;" d="M182 233L184 236L182 233M53 235L54 236L53 235M52.3333 236.667L52.6667 237.333L52.3333 236.667M184.333 237.667L184.667 238.333L184.333 237.667M51 238L52 239L51 238M185 239L186 240L185 239M50 240L51 241L50 240M186 241L188 246L189 246L186 241M49.3333 242.667L49.6667 243.333L49.3333 242.667M48.3333 244.667L48.6667 245.333L48.3333 244.667M47 246L46 249L47 246M189 247L190 248L189 247z"/>
<path style="fill:#c9ae4f; stroke:none;" d="M45 249L46 250L45 249z"/>
<path style="fill:#6d5a1c; stroke:none;" d="M190.333 249.667L190.667 250.333L190.333 249.667M45 250L46 251L45 250z"/>
<path style="fill:#c9ae4f; stroke:none;" d="M44 251L45 252L44 251z"/>
<path style="fill:#6d5a1c; stroke:none;" d="M191.333 251.667L191.667 252.333L191.333 251.667M44.3333 252.667L44.6667 253.333L44.3333 252.667z"/>
<path style="fill:#c9ae4f; stroke:none;" d="M43 253L40 260L41 260L43 253z"/>
<path style="fill:#6d5a1c; stroke:none;" d="M192 253L194 256L192 253M43 255L44 256L43 255M42.3333 256.667L42.6667 257.333L42.3333 256.667z"/>
<path style="fill:#c9ae4f; stroke:none;" d="M194 256L198 265L82 265C71.4522 265 47.4357 269.391 39 263L38 263C38.9045 267.221 43.3458 266 47 266L76 266C116.959 266 158.211 266.685 199 266L194 256z"/>
<path style="fill:#6d5a1c; stroke:none;" d="M194.333 257.667L194.667 258.333L194.333 257.667M41 258L42 259L41 258M195 259L196 260L195 259M229 259L230 260L229 259M40 260L41 261L40 260z"/>
<path style="fill:#c9ae4f; stroke:none;" d="M228 260C227.371 267.263 234.648 266 240 266L280 266L280 265L230 265L230 260L228 260z"/>
<path style="fill:#6d5a1c; stroke:none;" d="M196 261L197 265L198 265L196 261M229 261L230 262L229 261M39.3333 262.667L39.6667 263.333L39.3333 262.667M386 264L387 265L386 264z"/>
<path style="fill:#c9ae4f; stroke:none;" d="M60 290C64.4304 299.746 80.8246 296 90 296L90 295C79.0767 295 68.9319 296.87 60 290M160 292C166.414 291.443 165.305 296.299 164 301C167.558 296.653 165.27 286.093 160 292M201 323L202 323C202 314.432 201.301 305.537 202.059 297.005C202.526 291.746 206.423 290.858 208 296C209.61 291.837 204.942 288.018 202.028 292.322C197.809 298.552 201 315.557 201 323M272 290L272 291L275 291L272 290M325 290L325 291C328.977 292.206 329.004 295.817 332.313 297.397C335.484 298.911 339.635 297.003 342.623 299.174C348.971 303.787 331.782 304 330 304L329 313L330 313L332 305C334.779 305 352.071 304.209 343.677 297.897C340.603 295.585 336.468 297.927 333.302 295.969C329.491 293.612 330.188 290.414 325 290M402 290L402 291L405 291L402 290M56 291L54 295L58 291L56 291z"/>
<path style="fill:#6d5a1c; stroke:none;" d="M56 294L60 292L63 296L61 291L56 294M161 291L160 294L161 294L161 291z"/>
<path style="fill:#191510; stroke:none;" d="M162 291L154 317C162.946 317 188.182 321.318 194.142 313.606C197.204 309.642 196 302.693 196 298C188.046 299.327 193.461 308.402 186.941 311.972C180.439 315.533 167.313 313 160 313L164 291L162 291z"/>
<path style="fill:#6d5a1c; stroke:none;" d="M164 291L165 292L164 291M203 291C200.173 300.566 199.001 323.119 207 330L203 291z"/>
<path style="fill:#191510; stroke:none;" d="M204 291C202.024 299.302 199.346 323.583 207.214 329.142C213.238 333.399 225.943 331.015 233 331C235.025 330.996 240.505 331.715 241.079 328.83C241.809 325.154 233.867 326.001 232 326C225.398 325.997 202.491 328.432 207.608 315.059C211.468 304.97 243.195 309.168 241 294L207 306L206 291L204 291z"/>
<path style="fill:#6d5a1c; stroke:none;" d="M206 291L209 306L206 291M271 291L271 293L273 291L271 291z"/>
<path style="fill:#191510; stroke:none;" d="M271 299L256 300L256 302L271 304C271.047 307.986 271.06 310.416 275 312L276 304L325 304L326 312C329.94 310.416 329.953 307.986 330 304C335.287 304 341.126 305.212 344 300L330 299C329.875 295.122 329.498 292.928 326 291L325 299L276 299L275 291C271.502 292.928 271.125 295.122 271 299z"/>
<path style="fill:#6d5a1c; stroke:none;" d="M275.333 291.667L275.667 292.333L275.333 291.667z"/>
<path style="fill:#c9ae4f; stroke:none;" d="M276 291C276.076 293.319 275.86 296.195 278.318 297.397C286.713 301.499 304.651 298.001 314 298C318.296 298 322.303 298.74 325 295C311.167 300.041 292.624 297 278 297L276 291z"/>
<path style="fill:#6d5a1c; stroke:none;" d="M325 291L324 295L325 295L325 291M328 291L329 292L328 291M401 291L400 308L369 308L369 309L401 309L403 291L401 291z"/>
<path style="fill:#191510; stroke:none;" d="M403 291L401 309L361 309C362.112 315.401 368.792 314 374 314C373.874 329.229 368.173 345.299 364.474 360C363.972 361.995 359.084 373.565 363.185 373.654C368.903 373.778 371.625 353.14 372.861 349C375.125 341.42 374.474 319.565 381.317 315.028C385.774 312.073 395.8 314 401 314L401 375L406 375L406 314C415.401 314 439.231 318.339 444.821 308.79C446.885 305.263 446 299.929 446 296C439.29 298.037 443.108 304.86 437.852 307.972C430.743 312.181 414.183 309 406 309C406 303.03 407.545 295.451 403 291z"/>
<path style="fill:#6d5a1c; stroke:none;" d="M404 291L406 293L406 291L404 291z"/>
<path style="fill:#191510; stroke:none;" d="M51 317L70 318C65.0717 326.512 57.7995 328.904 50 334L50 336C64.7809 339.079 67.9254 323.819 77.2778 318.027C81.7632 315.249 90.8653 317 96 317C93.8203 310.432 81.7495 313 76 313L76 301L95 300C88.6553 292.383 70.2514 296 61 296L60 292C57.6004 293.396 47.2792 308.53 53.2106 308.654C56.0225 308.713 57.3603 304.086 59.2739 302.603C64.367 298.659 72.4491 301.984 70.6775 308.941C68.3785 317.97 53.8997 308.263 51 317z"/>
<path style="fill:#6d5a1c; stroke:none;" d="M165 292L165 296L166 296L165 292z"/>
<path style="fill:#c9ae4f; stroke:none;" d="M237 295C240.261 294.714 242.979 295.512 241 299C246.276 300.989 241.679 288.027 237 295M270 292C267.934 298.806 261.37 295.84 256 298L256 299C260.722 298.123 272.661 299.651 270 292M324 292L325 293L324 292z"/>
<path style="fill:#6d5a1c; stroke:none;" d="M329 292L330 293L329 292z"/>
<path style="fill:#c9ae4f; stroke:none;" d="M400 292L401 293L400 292M406 292L406 308C414.223 308 436.647 311.894 441 304L440 304C435.807 308.282 414.419 309.78 409.653 305.397C405.936 301.978 407.759 296.192 406 292M100 297L101 297L104 295L100 297M105 294L106 295L105 294M113 294L114 295L113 294M120 294L120 295L131 295L120 294M134 294L135 295L134 294M159 294L157 300L158 300L159 294M235 294L227 299L227 300C229.816 299.182 235.602 297.416 235 294z"/>
<path style="fill:#6d5a1c; stroke:none;" d="M238 294L239 295L238 294M241 294L242 295L241 294z"/>
<path style="fill:#c9ae4f; stroke:none;" d="M440 299L441 299C443.231 295.312 445.264 296.146 448 299C448.132 293.074 441.492 294.28 440 299z"/>
<path style="fill:#6d5a1c; stroke:none;" d="M55 295L56 296L55 295z"/>
<path style="fill:#c9ae4f; stroke:none;" d="M92 295L92 296C100.259 304.724 64.3852 300.103 78 312C76.6712 300.226 84.4147 305.458 91.9414 303.088C96.9855 301.5 95.5369 296.958 92 295z"/>
<path style="fill:#6d5a1c; stroke:none;" d="M127 336L127 335C120.967 335 108.442 337.391 103.318 333.972C100.729 332.245 101.02 328.725 101.001 326C100.96 320.083 97.9458 300.613 103.318 297.028C109.956 292.598 128.085 296 136 296L136 326C137.98 321.282 139.773 299.494 135.397 296.028C131.706 293.105 121.513 295 117 295C113.129 295 104.922 293.456 101.742 296.028C99.3715 297.946 100.004 302.327 100 305C99.9899 311.066 96.8323 331.312 102.318 334.972C107.612 338.505 120.756 336 127 336z"/>
<path style="fill:#c9ae4f; stroke:none;" d="M136 295L137 296L136 295z"/>
<path style="fill:#6d5a1c; stroke:none;" d="M159 295L159 298L160 298L159 295z"/>
<path style="fill:#c9ae4f; stroke:none;" d="M188 311L195 296L196 312C198.697 308.213 198.784 290.122 191.603 296.647C188.702 299.283 189.603 307.218 188 311z"/>
<path style="fill:#6d5a1c; stroke:none;" d="M236 295L237 296L236 295M242 295L241 299L242 295M443 295L443 296L446 296L443 295z"/>
<path style="fill:#c9ae4f; stroke:none;" d="M53 296L50 305L51 305L55 296L53 296z"/>
<path style="fill:#6d5a1c; stroke:none;" d="M92 296L95 299L92 296z"/>
<path style="fill:#191510; stroke:none;" d="M136 296C128.618 296 108.418 292.423 102.603 297.028C99.5219 299.468 101 307.524 101 311C101 316.278 98.6505 329.133 102.028 333.397C103.891 335.75 108.383 334.999 111 335C118.449 335.003 131.517 337.597 135.106 328.91C138.755 320.079 136 305.489 136 296z"/>
<path style="fill:#c9ae4f; stroke:none;" d="M137 296L137 309L138 309L137 296z"/>
<path style="fill:#6d5a1c; stroke:none;" d="M191 299L196 298C193.638 296.5 192.64 296.72 191 299M234 296L231 298L231 299L234 296M270 296L258 298L258 299C260.858 299 271.731 300.591 270 296M324 296L310 298L276 297C278.156 299.954 282.55 299 286 299L314 299C316.691 299 325.663 300.411 324 296M441 296L441 298L443 296L441 296M446 296L446 306L447 306L446 296M54.3333 297.667L54.6667 298.333L54.3333 297.667z"/>
<path style="fill:#c9ae4f; stroke:none;" d="M208 297L209 306L221 303L221 302C212.94 303.184 212.217 303.798 208 297z"/>
<path style="fill:#6d5a1c; stroke:none;" d="M330 297L343 299L343 298L330 297M164.333 298.667L164.667 299.333L164.333 298.667M53.3333 299.667L53.6667 300.333L53.3333 299.667M158 299L156 306L157 306L158 299M196 299L196 309L197 309L196 299M229 299L230 300L229 299M240 299L241 300L240 299M256.667 299.333L257.333 299.667L256.667 299.333M343 299L342 304C344.36 302.486 345.261 301.047 343 299M94 300L95 301L94 300M106.667 300.333L107.333 300.667L106.667 300.333M109 300L109 301L112 301L109 300M113 300L113 301L117 301L113 300M125 300L126 301L125 300M127.667 300.333L128.333 300.667L127.667 300.333M130 300L131 301L130 300z"/>
<path style="fill:#c9ae4f; stroke:none;" d="M225 300L226 301L225 300z"/>
<path style="fill:#6d5a1c; stroke:none;" d="M226.667 300.333L227.333 300.667L226.667 300.333M238 300L234 304L239 301L238 300z"/>
<path style="fill:#c9ae4f; stroke:none;" d="M239 300L238 302L240 302L239 300M255 300L255 304L256 304L255 300z"/>
<path style="fill:#6d5a1c; stroke:none;" d="M52.3333 301.667L52.6667 302.333L52.3333 301.667M56 307L57 307C63.0336 298.222 69.9674 302.764 70 312C64.0335 312 52.6286 309.461 50 316C55.2044 312.242 66.551 315.717 69.9722 311.397C76.927 302.614 60.4237 296.092 56 307M76 303L93 302C88.9049 300.282 79.0836 299.471 76 303z"/>
<path style="fill:#c9ae4f; stroke:none;" d="M106 301L106 330L122 330L122 329C118.507 329 112.371 330.147 109.407 327.972C104.81 324.597 107.664 307.27 108 302L130 302L130 325L131 325L131 301L106 301z"/>
<path style="fill:#6d5a1c; stroke:none;" d="M163 301L161 309L162 309L163 301z"/>
<path style="fill:#c9ae4f; stroke:none;" d="M222.667 301.333L223.333 301.667L222.667 301.333z"/>
<path style="fill:#6d5a1c; stroke:none;" d="M224 301L225 302L224 301z"/>
<path style="fill:#c9ae4f; stroke:none;" d="M440 301L441 302L440 301M447 301C446.515 306.884 444.651 310.34 440 314L440 315C445.594 312.698 449.467 307.052 447 301M58 305L69 303L69 312C72.4578 303.757 63.2668 297.697 58 305z"/>
<path style="fill:#efc022; stroke:none;" d="M108 302C107.167 307.568 104.815 322.62 108.117 327.397C111.01 331.583 126.577 330.021 128.972 325.867C132.258 320.167 130 308.462 130 302L108 302z"/>
<path style="fill:#c9ae4f; stroke:none;" d="M156.333 302.667L156.667 303.333L156.333 302.667M164.333 302.667L164.667 303.333L164.333 302.667z"/>
<path style="fill:#6d5a1c; stroke:none;" d="M221 302L221 303L224 303L221 302z"/>
<path style="fill:#c9ae4f; stroke:none;" d="M235 304L238 302L235 304z"/>
<path style="fill:#6d5a1c; stroke:none;" d="M256 302L259 304L256 302M51 303L52 304L51 303z"/>
<path style="fill:#efc022; stroke:none;" d="M56 311L69 312L69 303C61.9495 303.005 58.4478 303.919 56 311z"/>
<path style="fill:#6d5a1c; stroke:none;" d="M219.667 303.333L220.333 303.667L219.667 303.333z"/>
<path style="fill:#c9ae4f; stroke:none;" d="M109 304L110 305L109 304M155 304C153.772 309.931 150.97 315.3 156 320L156 321C152.119 324.801 153 329.868 153 335L153 366C153.002 371.515 152.878 377.587 160 376L160 375C154.447 375.481 154.034 371.83 154.001 367C153.932 357.001 154 346.999 154 337C154 333.28 153.002 327.58 155.179 324.318C157.347 321.069 162.658 322 166 322L196 322C197.066 335.502 199.611 352.794 195.941 366C194.413 371.502 183.455 379.874 183 370L182 370C180.787 378.305 191.483 376.449 195.146 371.786C201.41 363.814 198.727 343.733 198.35 334C198.214 330.502 199.293 326.256 197.092 323.228C194.091 319.101 189.269 320.775 185 320.961C177.237 321.298 161.467 323.743 155.593 317.276C152.316 313.67 156.486 308.189 155 304M163.333 304.667L163.667 305.333L163.333 304.667z"/>
<path style="fill:#6d5a1c; stroke:none;" d="M216.667 304.333L217.333 304.667L216.667 304.333M231.667 304.333L232.333 304.667L231.667 304.333z"/>
<path style="fill:#c9ae4f; stroke:none;" d="M233 304L226 307L226 308L233 304M257 304L257 305L261 305L257 304M267 304L267 305L270 306L267 304z"/>
<path style="fill:#6d5a1c; stroke:none;" d="M270 304L270 310L271 310L270 304M276 304L277 305L276 304z"/>
<path style="fill:#c9ae4f; stroke:none;" d="M277 304L275 313L271 310L270 310C274.527 317.636 277.872 308.514 279 304L277 304M280 304L280 305C290.92 305 309.836 301.3 319.856 305.603C323.126 307.008 324.34 311.664 327 314L324 304L280 304z"/>
<path style="fill:#6d5a1c; stroke:none;" d="M324 304L324 309L325 309L324 304M50 305L53 310L53 309L50 305M211 305L211 306L214 306L211 305M229 305L230 306L229 305z"/>
<path style="fill:#c9ae4f; stroke:none;" d="M49.3333 306.667L49.6667 307.333L49.3333 306.667M57 306L52 310L52 311L66 312L66 311L56 311L57 306z"/>
<path style="fill:#6d5a1c; stroke:none;" d="M226 306L227 307L226 306z"/>
<path style="fill:#c9ae4f; stroke:none;" d="M399 306L360 308L360 309L390 308L399 306z"/>
<path style="fill:#6d5a1c; stroke:none;" d="M440 306L441 307L440 306z"/>
<path style="fill:#c9ae4f; stroke:none;" d="M162.333 307.667L162.667 308.333L162.333 307.667z"/>
<path style="fill:#6d5a1c; stroke:none;" d="M221 308L221 309L226 308L221 308z"/>
<path style="fill:#c9ae4f; stroke:none;" d="M269 307L269 310L270 310L269 307z"/>
<path style="fill:#6d5a1c; stroke:none;" d="M439 307L440 308L439 307M55 308L56 309L55 308M155.333 308.667L155.667 309.333L155.333 308.667z"/>
<path style="fill:#c9ae4f; stroke:none;" d="M224 308L225 309L224 308z"/>
<path style="fill:#6d5a1c; stroke:none;" d="M362.667 308.333L363.333 308.667L362.667 308.333M365 308L365 309L368 309L365 308M406 308L406 309L439 309L406 308M445.333 308.667L445.667 309.333L445.333 308.667z"/>
<path style="fill:#c9ae4f; stroke:none;" d="M50 309L51 310L50 309z"/>
<path style="fill:#6d5a1c; stroke:none;" d="M54 309L55 310L54 309z"/>
<path style="fill:#c9ae4f; stroke:none;" d="M161 309C161.609 311.841 163.428 312.742 165 310L161 309z"/>
<path style="fill:#6d5a1c; stroke:none;" d="M190 309L191 310L190 309M219 309L220 310L219 309z"/>
<path style="fill:#c9ae4f; stroke:none;" d="M220.667 309.333L221.333 309.667L220.667 309.333z"/>
<path style="fill:#6d5a1c; stroke:none;" d="M360 309C360.064 311.993 359.946 313.346 363 314L363 313L360 309z"/>
<path style="fill:#c9ae4f; stroke:none;" d="M137 310L133 334C139.669 329.632 139.846 316.783 137 310z"/>
<path style="fill:#6d5a1c; stroke:none;" d="M160 310C161.187 315.541 184.097 313.792 189 312L189 311C180.743 312.533 167.548 314.198 160 310M214.667 310.333L215.333 310.667L214.667 310.333z"/>
<path style="fill:#c9ae4f; stroke:none;" d="M216 310L216 311L219 311L216 310z"/>
<path style="fill:#6d5a1c; stroke:none;" d="M444 310L445 311L444 310z"/>
<path style="fill:#c9ae4f; stroke:none;" d="M84 311L84 312L92 312L84 311z"/>
<path style="fill:#6d5a1c; stroke:none;" d="M154 311L154 314L155 314L154 311z"/>
<path style="fill:#c9ae4f; stroke:none;" d="M167.667 311.333L168.333 311.667L167.667 311.333M170 311L170 312L184 312L170 311M186 311L187 312L186 311z"/>
<path style="fill:#6d5a1c; stroke:none;" d="M195.333 311.667L195.667 312.333L195.333 311.667M208 323L209 323L211 311C206.267 313.61 206.596 318.248 208 323z"/>
<path style="fill:#c9ae4f; stroke:none;" d="M208 315L216 312C212.399 310.652 210.329 312.203 208 315z"/>
<path style="fill:#6d5a1c; stroke:none;" d="M271.667 311.333L272.333 311.667L271.667 311.333M275 311L276 312L275 311M325 311L326 312L325 311M328 311L326 312L326 313L328 311M439 313L439 314L444 312L439 313z"/>
<path style="fill:#c9ae4f; stroke:none;" d="M50.3333 312.667L50.6667 313.333L50.3333 312.667z"/>
<path style="fill:#6d5a1c; stroke:none;" d="M76 312L76 313L96 314C92.387 309.865 81.2494 312 76 312M273.667 312.333L274.333 312.667L273.667 312.333z"/>
<path style="fill:#c9ae4f; stroke:none;" d="M96 313L95 319L99 316L99 315L96 313M195 313L187 318L187 319C190.532 318.36 195.095 317.16 195 313M360 314L360 315C366.032 315.001 370.209 314.441 372 321L374 314L360 314M380 316L400 316C396.94 312.498 383.06 312.498 380 316z"/>
<path style="fill:#6d5a1c; stroke:none;" d="M400 314L400 374L401 374L401 333L400 314z"/>
<path style="fill:#c9ae4f; stroke:none;" d="M406 314L406 376L401 374L400 374C403.503 379.385 407.259 374.878 407.285 369.999C407.385 351.94 406.579 334.008 408 316L439 315L406 314M49 315L50 316L49 315z"/>
<path style="fill:#6d5a1c; stroke:none;" d="M96 315L97 316L96 315M192 315L193 316L192 315M379 315L379 318L380 318L379 315z"/>
<path style="fill:#c9ae4f; stroke:none;" d="M50 316L54 320L54 319L50 316z"/>
<path style="fill:#6d5a1c; stroke:none;" d="M190 316L191 317L190 316z"/>
<path style="fill:#c9ae4f; stroke:none;" d="M208 316L208 321L210 321L208 316z"/>
<path style="fill:#6d5a1c; stroke:none;" d="M51 317L51 318L70 320C66.6783 314.876 56.5313 317 51 317M75 320L96 318C91.0475 315.922 78.1394 315.158 75 320M154 317L154 318C164.763 320.562 179.156 320.013 190 318C180.44 313.989 164.387 317 154 317z"/>
<path style="fill:#c9ae4f; stroke:none;" d="M430 334L431 334C430.269 328.341 426.863 321.168 434 319C423.859 313.529 429.164 330.003 430 334M260 319L260 320C277.525 315.828 298.997 319 317 319C319.862 319 335.378 317.268 333.654 322.888C332.45 326.815 326.12 329.692 323.001 331.905C314.628 337.847 300.492 344.371 295 353C306.36 346.758 316.56 338.511 327.09 330.996C329.993 328.924 336.387 325.632 335.248 321.147C333.938 315.987 321.898 318 318 318C300.322 318 276.929 313.996 260 319z"/>
<path style="fill:#6d5a1c; stroke:none;" d="M373 318L371 329L372 329L373 318z"/>
<path style="fill:#c9ae4f; stroke:none;" d="M379.333 318.667L379.667 319.333L379.333 318.667M59 319L60 320L59 319M61 319L62 320L61 319M65 319L66 320L65 319M67 319L67 321L69 321L69 319L67 319M76 319C74.0622 323.972 75.3627 326.507 80 329L76 321L89 326L76 319M90 319L90 320L94 320L90 319z"/>
<path style="fill:#6d5a1c; stroke:none;" d="M264 325L264 324L261 324L264 320C259.403 318.965 260.363 323.791 264 325z"/>
<path style="fill:#191510; stroke:none;" d="M261 320L261 324L323 325L323 326C313.575 329.913 305.039 337.487 296.83 343.507C287.055 350.675 276.835 357.234 267.09 364.434C264.853 366.086 258.328 369.289 258.921 372.725C259.63 376.834 273.901 375 277 375L317 375C322.869 375 330.331 376.206 335.96 374.347C342.478 372.195 346.758 358.728 339 356C338.913 360.224 339.008 366.375 334.853 368.821C330.08 371.631 321.357 370 316 370L270 370L318.039 335.255L335 321L309 319L261 320z"/>
<path style="fill:#6d5a1c; stroke:none;" d="M265 319L265 320L269 320L265 319M271 319L271 320L276 320L271 319M278 319L279 320L278 319M320 319L320 320L324 320L320 319M327.667 319.333L328.333 319.667L327.667 319.333M331 319L331 320L334 320L331 319z"/>
<path style="fill:#191510; stroke:none;" d="M430 319C426.958 331.047 435.849 349.031 438.536 361C439.006 363.093 439.916 375.057 443.812 373.539C447.608 372.059 444.12 362.599 443.326 360C440.452 350.592 438.011 340.623 436.003 331C434.992 326.156 435.072 321.019 430 319z"/>
<path style="fill:#6d5a1c; stroke:none;" d="M432.667 319.333L433.333 319.667L432.667 319.333M334 320L335 321L334 320z"/>
<path style="fill:#c9ae4f; stroke:none;" d="M434 320L438 337L439 337L434 320z"/>
<path style="fill:#6d5a1c; stroke:none;" d="M67 321L64 326L67 321M74.3333 321.667L74.6667 322.333L74.3333 321.667M76 321L76 323L78 321L76 321z"/>
<path style="fill:#191510; stroke:none;" d="M76 323L76 324C81.1204 328.886 88.4261 336.824 96 335C92.7336 329.253 82.7827 320.366 76 323z"/>
<path style="fill:#6d5a1c; stroke:none;" d="M80 321L81 322L80 321M378 321L376 333L377 333L378 321M434 321L434 324L435 324L434 321z"/>
<path style="fill:#c9ae4f; stroke:none;" d="M66 322L67 323L66 322z"/>
<path style="fill:#6d5a1c; stroke:none;" d="M81 322L84 324L81 322M160 375L160 374L155 375L155 338L156.603 324.603L167 323L196 324C192.696 320.219 183.74 322 179 322C174.052 322 158.466 319.453 155.179 323.603C153.032 326.315 154 331.779 154 335L154 366C154.002 371.037 153.513 376.476 160 375z"/>
<path style="fill:#c9ae4f; stroke:none;" d="M209 322L213 325L213 324L209 322M65 323L66 324L65 323z"/>
<path style="fill:#191510; stroke:none;" d="M155 375C162.21 373.797 160 364.711 160 359L191 359C190.974 361.89 191.214 365.187 189.258 367.571C187.996 369.11 183.424 370.329 183.921 372.823C185.047 378.468 194.348 370.225 195.258 367.96C198.792 359.163 196 344.436 196 335C196 332.09 196.912 327.052 194.972 324.603C192.082 320.954 180.235 323 176 323C171.295 323 160.439 320.99 156.603 324.028C153.649 326.368 155 333.684 155 337L155 375z"/>
<path style="fill:#6d5a1c; stroke:none;" d="M334 323L335 324L334 323z"/>
<path style="fill:#c9ae4f; stroke:none;" d="M64 324L65 325L64 324z"/>
<path style="fill:#6d5a1c; stroke:none;" d="M72 324L72 326L74 324L72 324M76 324L76 326L78 326L76 324M84 324L85 325L84 324z"/>
<path style="fill:#c9ae4f; stroke:none;" d="M202 324L204 328L202 324M215 324L216 325L215 324M220 324L221 325L220 324M222 324L222 325C224.317 325 245.573 324.271 241.248 329.441C239.322 331.744 234.628 330.999 232 331C223.249 331.004 214.682 331.097 206 330C212.331 334.797 226.353 332.856 234 332.336C236.416 332.171 240.396 332.558 242.396 330.973C250.203 324.783 233.408 324 231 324L222 324M260 324L261 325L260 324z"/>
<path style="fill:#6d5a1c; stroke:none;" d="M333 324L334 325L333 324z"/>
<path style="fill:#c9ae4f; stroke:none;" d="M371.333 324.667L371.667 325.333L371.333 324.667z"/>
<path style="fill:#6d5a1c; stroke:none;" d="M429.333 324.667L429.667 325.333L429.333 324.667z"/>
<path style="fill:#c9ae4f; stroke:none;" d="M58 329L64 326L58 329z"/>
<path style="fill:#6d5a1c; stroke:none;" d="M130.333 325.667L130.667 326.333L130.333 325.667M211 325L211 326L241 326L211 325z"/>
<path style="fill:#c9ae4f; stroke:none;" d="M261.667 325.333L262.333 325.667L261.667 325.333M268 325L269 326L268 325M270 325L270 326L310 326C299.488 321.589 281.434 325 270 325M311 325L311 326L315 326L311 325M316 325L317 328L312 332L321 326L316 325z"/>
<path style="fill:#efc022; stroke:none;" d="M319 325L320 326L319 325z"/>
<path style="fill:#6d5a1c; stroke:none;" d="M321.667 325.333L322.333 325.667L321.667 325.333M331 325L332 326L331 325z"/>
<path style="fill:#c9ae4f; stroke:none;" d="M378 325L378 329L379 329L378 325z"/>
<path style="fill:#6d5a1c; stroke:none;" d="M62 326L61 328L63 328L62 326z"/>
<path style="fill:#c9ae4f; stroke:none;" d="M71 326L64 335C67.4008 333.183 71.1017 330.054 71 326z"/>
<path style="fill:#6d5a1c; stroke:none;" d="M78 326L79 327L78 326M87 326L90 329L87 326z"/>
<path style="fill:#c9ae4f; stroke:none;" d="M129 326L124 329L124 330L129 326z"/>
<path style="fill:#6d5a1c; stroke:none;" d="M196 326L196 351L197 351L196 326M241 326L242 330L243 330L241 326M320 326L321 327L320 326M330 326L331 327L330 326M435 326L435 329L436 329L435 326M70 327L71 328L70 327M79 327L80 328L79 327z"/>
<path style="fill:#c9ae4f; stroke:none;" d="M90 327L95 338L87 334L87 335L90 336L88 338L88 339L104 339L104 338L96 338C97.1641 332.343 94.7747 329.793 90 327z"/>
<path style="fill:#6d5a1c; stroke:none;" d="M160 327L160 328L191 329C186.392 323.726 166.916 327 160 327M317 329L320 327L317 329M327 329L330 327L327 329M60 328L61 329L60 328M69 328L70 329L69 328M80 328L81 329L80 328M129 328L130 329L129 328M135.333 328.667L135.667 329.333L135.333 328.667z"/>
<path style="fill:#c9ae4f; stroke:none;" d="M160 330C167.395 328.239 176.41 328.377 183.985 329.059C188.735 329.486 190.236 332.588 187 336L187 337L191 337C190.991 334.576 191.565 330.743 189.397 329.028C185.478 325.927 163.091 326.463 160 330M204 328L204 330L206 330L204 328M53 330L53 331L57 330L53 330z"/>
<path style="fill:#6d5a1c; stroke:none;" d="M57.6667 329.333L58.3333 329.667L57.6667 329.333M68 329L69 330L68 329M81 329L81 330L84 331L81 329M91 329L92 330L91 329M127.667 329.333L128.333 329.667L127.667 329.333z"/>
<path style="fill:#efc022; stroke:none;" d="M161.604 330.028C159.09 332.033 160.349 335.851 163.148 336.682C167.851 338.079 184.793 338.914 188.381 335.258C190.858 332.735 188.836 329.664 185.891 329.148C181.034 328.297 165.534 326.894 161.604 330.028z"/>
<path style="fill:#6d5a1c; stroke:none;" d="M316 329L317 330L316 329M326 329L327 330L326 329z"/>
<path style="fill:#c9ae4f; stroke:none;" d="M370 329L370 332L371 332L370 329z"/>
<path style="fill:#6d5a1c; stroke:none;" d="M430.333 329.667L430.667 330.333L430.333 329.667M55 330L56 331L55 330M66.6667 330.333L67.3333 330.667L66.6667 330.333z"/>
<path style="fill:#c9ae4f; stroke:none;" d="M82 330L83 331L82 330z"/>
<path style="fill:#6d5a1c; stroke:none;" d="M92.6667 330.333L93.3333 330.667L92.6667 330.333M111 330L111 331L125 331L111 330M209 330L210 331L209 330M241 330L242 331L241 330M314 330L315 331L314 330M324 330L325 331L324 330z"/>
<path style="fill:#c9ae4f; stroke:none;" d="M377 330L375 343L376 343L377 330M51 331L50 338L51 338L51 331z"/>
<path style="fill:#6d5a1c; stroke:none;" d="M51 333L54 331L51 333M65 331L66 332L65 331z"/>
<path style="fill:#c9ae4f; stroke:none;" d="M84 331L84 333L86 333L84 331z"/>
<path style="fill:#6d5a1c; stroke:none;" d="M85 331L86 332L85 331M94 331L95 332L94 331z"/>
<path style="fill:#c9ae4f; stroke:none;" d="M310 331L300 339L300 340C303.435 338.766 310.986 335.203 310 331z"/>
<path style="fill:#6d5a1c; stroke:none;" d="M313 331L314 332L313 331M321 333L324 331L321 333M436 331L438 340L439 340L436 331M64 332L65 333L64 332M86 332L86 334L88 334L86 332M95.3333 332.667L95.6667 333.333L95.3333 332.667M130 335L134 333L130 335z"/>
<path style="fill:#c9ae4f; stroke:none;" d="M201 365L202 365C202 356.638 200.801 347.271 202.148 339.02C203.123 333.051 207.288 335.547 208 340L210 340C209.369 335.924 203.446 328.936 201.318 336.19C199.041 343.951 200.152 356.982 201 365z"/>
<path style="fill:#6d5a1c; stroke:none;" d="M311.667 332.333L312.333 332.667L311.667 332.333M370 332L370 335L371 335L370 332M50 333L51 334L50 333M62.6667 333.333L63.3333 333.667L62.6667 333.333M320 333L321 334L320 333M60 334L61 335L60 334z"/>
<path style="fill:#c9ae4f; stroke:none;" d="M61 334L54 337L54 338L63 334L61 334M100 334L101 335L100 334M131 334L132 335L131 334z"/>
<path style="fill:#6d5a1c; stroke:none;" d="M203 334C200.264 343.255 198.487 368.778 208 374C199.687 361.205 205.207 348.144 203 334z"/>
<path style="fill:#191510; stroke:none;" d="M204 334C201.665 341.898 200.002 364.25 205.434 370.891C210.973 377.664 224.202 375.004 232 375C234.32 374.999 239.33 375.815 240.824 373.455C243.328 369.499 233.532 370.001 232 370C224.415 369.997 203.677 372.978 207.323 359.109C208.474 354.728 214.442 354.537 218 353.138C226.399 349.836 238.101 346.941 242 338L241 337L207 350L206 334L204 334z"/>
<path style="fill:#6d5a1c; stroke:none;" d="M206 334L207 335L206 334M309 334L310 335L309 334M319 334L320 335L319 334z"/>
<path style="fill:#c9ae4f; stroke:none;" d="M369 334L367 346L369 334z"/>
<path style="fill:#6d5a1c; stroke:none;" d="M431 334L433 342L434 342L431 334M57.6667 335.333L58.3333 335.667L57.6667 335.333z"/>
<path style="fill:#efc022; stroke:none;" d="M60 335L61 336L60 335z"/>
<path style="fill:#6d5a1c; stroke:none;" d="M90 335L91 336L90 335M95 335L96 336L95 335z"/>
<path style="fill:#c9ae4f; stroke:none;" d="M101 335L102 336L101 335M102 336L102 337L111 337L111 338L105 338L105 339L129 339L129 338L122 338L122 337L130 336L102 336z"/>
<path style="fill:#6d5a1c; stroke:none;" d="M207 335L207 350L209 350L207 335z"/>
<path style="fill:#c9ae4f; stroke:none;" d="M240 335L241 336L240 335z"/>
<path style="fill:#6d5a1c; stroke:none;" d="M307.667 335.333L308.333 335.667L307.667 335.333M317.667 335.333L318.333 335.667L317.667 335.333M50 336L51 337L50 336M54.6667 336.333L55.3333 336.667L54.6667 336.333z"/>
<path style="fill:#c9ae4f; stroke:none;" d="M81 336L82 337L81 336z"/>
<path style="fill:#6d5a1c; stroke:none;" d="M91 336L91 337L95 338L91 336z"/>
<path style="fill:#c9ae4f; stroke:none;" d="M160 336L161 337L160 336M237 336L233 340L237 336z"/>
<path style="fill:#6d5a1c; stroke:none;" d="M236 339L241 337L242 338L239 344C244.187 339.666 241.252 333.699 236 339z"/>
<path style="fill:#c9ae4f; stroke:none;" d="M242 336L243 337L242 336z"/>
<path style="fill:#6d5a1c; stroke:none;" d="M305 336L304 339L305 336M375 336L375 340L376 340L375 336z"/>
<path style="fill:#c9ae4f; stroke:none;" d="M431 336L431 339L432 339L431 336z"/>
<path style="fill:#6d5a1c; stroke:none;" d="M51 337L51 338L54 338L51 337z"/>
<path style="fill:#efc022; stroke:none;" d="M112 337L112 338L118 338L112 337z"/>
<path style="fill:#6d5a1c; stroke:none;" d="M160 337L160 339L191 338L160 337z"/>
<path style="fill:#c9ae4f; stroke:none;" d="M243 337L243 341L244 341L243 337z"/>
<path style="fill:#6d5a1c; stroke:none;" d="M314 337L314 339L316 337L314 337z"/>
<path style="fill:#c9ae4f; stroke:none;" d="M54 352L55 352C56.2064 346.813 54.9537 342.051 60 339C53.321 338.071 54.003 347.532 54 352M61 338L61 339L64 339L61 338M66 338L66 339L72 339L66 338M76 338L76 339L81 339L76 338M82 338L82 339L85 339L82 338z"/>
<path style="fill:#efc022; stroke:none;" d="M91.6667 338.333L92.3333 338.667L91.6667 338.333z"/>
<path style="fill:#c9ae4f; stroke:none;" d="M130 338L130 340L132 340L130 338z"/>
<path style="fill:#6d5a1c; stroke:none;" d="M58 339L58 340L130 340L107 339L58 339M302 339L303 340L302 339M312 339L313 340L312 339M369 339L370 340L369 339M56 340L57 341L56 340z"/>
<path style="fill:#191510; stroke:none;" d="M132 340L97 340L68 340C65.0196 340 59.1473 338.927 57.0278 341.603C54.3377 345 56 353.875 56 358C56 361.777 54.2899 371.197 57.6034 373.821C61.1301 376.614 69.7466 375 74 375L113 375C118.417 375 125.258 375.836 129.347 371.442C135.222 365.129 132 348.095 132 340z"/>
<path style="fill:#6d5a1c; stroke:none;" d="M132 340L130 371C135.163 365.944 134.751 346.557 132 340z"/>
<path style="fill:#c9ae4f; stroke:none;" d="M133 340C133 351.997 134.309 363.082 129 374C136.427 368.342 136.47 348.268 133 340M209 348L209 349L209 350L232 341L209 348z"/>
<path style="fill:#6d5a1c; stroke:none;" d="M232.667 340.333L233.333 340.667L232.667 340.333M300 340L301 341L300 340M310 340L311 341L310 340z"/>
<path style="fill:#c9ae4f; stroke:none;" d="M431 340L434 350L435 350L431 340M439.333 340.667L439.667 341.333L439.333 340.667z"/>
<path style="fill:#6d5a1c; stroke:none;" d="M229 343L232 341L229 343z"/>
<path style="fill:#c9ae4f; stroke:none;" d="M242 341L241 343L243 343L242 341M292 346L299 342L292 346z"/>
<path style="fill:#6d5a1c; stroke:none;" d="M296 344L299 342L296 344M307.667 342.333L308.333 342.667L307.667 342.333M439.333 342.667L439.667 343.333L439.333 342.667M55.3333 343.667L55.6667 344.333L55.3333 343.667M160 343L160 344L191 344L160 343M228 343L229 344L228 343z"/>
<path style="fill:#c9ae4f; stroke:none;" d="M240 343L241 344L240 343z"/>
<path style="fill:#6d5a1c; stroke:none;" d="M306 343L307 344L306 343M368 343L368 346L369 346L368 343M374.333 343.667L374.667 344.333L374.333 343.667z"/>
<path style="fill:#c9ae4f; stroke:none;" d="M160 344L160 347L161 347L160 344z"/>
<path style="fill:#efc022; stroke:none;" d="M161 344C158.778 356.737 181.248 352 190 352C189.85 339.363 170.423 344 161 344z"/>
<path style="fill:#c9ae4f; stroke:none;" d="M189 344L190 352L160 351C163.564 355.079 182.604 354.24 187.852 352.682C191.868 351.49 191.59 346.264 189 344z"/>
<path style="fill:#6d5a1c; stroke:none;" d="M225 344L226 345L225 344M235 346L238 345L235 346z"/>
<path style="fill:#c9ae4f; stroke:none;" d="M238.667 344.333L239.333 344.667L238.667 344.333z"/>
<path style="fill:#6d5a1c; stroke:none;" d="M295 344L296 345L295 344M305 344L306 345L305 344z"/>
<path style="fill:#c9ae4f; stroke:none;" d="M375 344L376 345L375 344M440 344L444 354L440 344z"/>
<path style="fill:#6d5a1c; stroke:none;" d="M61 345L62 346L61 345z"/>
<path style="fill:#c9ae4f; stroke:none;" d="M61 354L127 354L124.682 345.603L111 345L78 345L63.3179 345.603L61 354z"/>
<path style="fill:#6d5a1c; stroke:none;" d="M126 345L127 354L128 354L126 345M222.667 345.333L223.333 345.667L222.667 345.333z"/>
<path style="fill:#c9ae4f; stroke:none;" d="M236.667 345.333L237.333 345.667L236.667 345.333z"/>
<path style="fill:#6d5a1c; stroke:none;" d="M293 345L294 346L293 345M303 345L304 346L303 345z"/>
<path style="fill:#c9ae4f; stroke:none;" d="M374.333 345.667L374.667 346.333L374.333 345.667z"/>
<path style="fill:#6d5a1c; stroke:none;" d="M434.333 345.667L434.667 346.333L434.333 345.667z"/>
<path style="fill:#efc022; stroke:none;" d="M64 346C63.6571 348.212 62.8276 351.131 65.3326 352.397C68.8624 354.18 75.135 353 79 353L110 353C113.663 353 121.378 354.442 124.381 351.973C131.302 346.284 114.947 346 113 346L104 346L88 346L64 346z"/>
<path style="fill:#6d5a1c; stroke:none;" d="M220 346L221 347L220 346M230 349L234 347L230 349z"/>
<path style="fill:#c9ae4f; stroke:none;" d="M234.667 346.333L235.333 346.667L234.667 346.333z"/>
<path style="fill:#6d5a1c; stroke:none;" d="M288 350L293 347L288 350M301.667 346.333L302.333 346.667L301.667 346.333M367 346L366 352L367 352L367 346M215 348L215 349L220 348L215 348z"/>
<path style="fill:#c9ae4f; stroke:none;" d="M233 347L222 352L222 353C224.829 352.322 234.236 350.324 233 347M284 350L284 351L290 347L284 350z"/>
<path style="fill:#6d5a1c; stroke:none;" d="M300 347L301 348L300 347z"/>
<path style="fill:#c9ae4f; stroke:none;" d="M366 347L366 350L367 350L366 347z"/>
<path style="fill:#6d5a1c; stroke:none;" d="M373 347L371 355L372 355L373 347M440 347L440 350L441 350L440 347M299 348L300 349L299 348M211.667 349.333L212.333 349.667L211.667 349.333M227.667 349.333L228.333 349.667L227.667 349.333M297.667 349.333L298.333 349.667L297.667 349.333M435 349L435 352L436 352L435 349M55 350L55 366L56 366L55 350M225 350L226 351L225 350M286 350L287 351L286 350M296 350L297 351L296 350M217 353L217 354L223 352L217 353M282 354L286 351L282 354M294 351L292 354L294 351z"/>
<path style="fill:#c9ae4f; stroke:none;" d="M365 351L364 355L365 355L365 351M373.333 351.667L373.667 352.333L373.333 351.667M434 351L436 354L434 351z"/>
<path style="fill:#6d5a1c; stroke:none;" d="M190 352L160 353L160 354L183 354L190 352M196 352L196 364L197 364L196 352z"/>
<path style="fill:#c9ae4f; stroke:none;" d="M282 352L283 353L282 352z"/>
<path style="fill:#6d5a1c; stroke:none;" d="M441.333 352.667L441.667 353.333L441.333 352.667z"/>
<path style="fill:#c9ae4f; stroke:none;" d="M220 353L221 354L220 353M271 360L271 361L282 354L271 360M293 353L272 369C286.425 373.264 305.951 370 321 370C326.872 370 334.455 371.485 337 365L336 365C330.832 370.019 323.743 369 317 369C303.277 369 289.68 368.328 276 368L293 353z"/>
<path style="fill:#6d5a1c; stroke:none;" d="M61 354L61 355L127 355L106 354L61 354M214 354L215 355L214 354z"/>
<path style="fill:#c9ae4f; stroke:none;" d="M215 354L215 356L217 354L215 354M219 354L220 355L219 354z"/>
<path style="fill:#6d5a1c; stroke:none;" d="M290 354L291 355L290 354z"/>
<path style="fill:#c9ae4f; stroke:none;" d="M337 358L338 358C341.45 354.792 343.344 356.9 344 361C346.152 355.269 339.14 351.92 337 358z"/>
<path style="fill:#6d5a1c; stroke:none;" d="M365 354L365 357L366 357L365 354z"/>
<path style="fill:#c9ae4f; stroke:none;" d="M372 354L370 363L371 363L372 354z"/>
<path style="fill:#6d5a1c; stroke:none;" d="M442 354L443 360L444 360L442 354M209 369L210 369C208.863 364.022 207.178 360.096 211 356C204.419 355.018 207.611 365.721 209 369z"/>
<path style="fill:#c9ae4f; stroke:none;" d="M209 365L210 365C209.519 360.648 210.544 358.656 214 356C208.165 354.42 207.823 360.896 209 365z"/>
<path style="fill:#6d5a1c; stroke:none;" d="M279 355L280 356L279 355M289 355L290 356L289 355M339 355L339 356C346.362 360.301 342.022 370.565 336 374C344.487 375.166 348.059 356.512 339 355M436 355L438 363L439 363L436 355z"/>
<path style="fill:#c9ae4f; stroke:none;" d="M443.333 355.667L443.667 356.333L443.333 355.667z"/>
<path style="fill:#6d5a1c; stroke:none;" d="M276 358L279 356L276 358M287 356L288 357L287 356M338 356L336 369L337 369L338 356z"/>
<path style="fill:#c9ae4f; stroke:none;" d="M364 356L360 371L361 371L364 356z"/>
<path style="fill:#6d5a1c; stroke:none;" d="M286 357L287 358L286 357z"/>
<path style="fill:#c9ae4f; stroke:none;" d="M436.333 357.667L436.667 358.333L436.333 357.667M444.333 357.667L444.667 358.333L444.333 357.667M54 358L54 363L55 363L54 358z"/>
<path style="fill:#6d5a1c; stroke:none;" d="M275 358L276 359L275 358M285 358L286 359L285 358M370.333 358.667L370.667 359.333L370.333 358.667z"/>
<path style="fill:#c9ae4f; stroke:none;" d="M160 361L190 360C189.494 364.504 187.839 366.652 184 369C188.195 369.693 193.766 363.558 189.393 360.028C185.523 356.904 163.067 357.49 160 361z"/>
<path style="fill:#6d5a1c; stroke:none;" d="M190 359L191 360L190 359M274 359L275 360L274 359M284 359L285 360L284 359M364 359L365 360L364 359M61 360L62 361L61 360z"/>
<path style="fill:#c9ae4f; stroke:none;" d="M62.6034 361.028C59.2376 363.693 61.3519 369.032 65.0586 369.772C78.9438 372.543 95.8293 370 110 370C114.371 370 121.894 371.151 125.141 367.436C127.625 364.594 126.69 360.788 122.941 360.148C108.807 357.736 92.3519 360 78 360C74.0707 360 65.8505 358.456 62.6034 361.028z"/>
<path style="fill:#6d5a1c; stroke:none;" d="M126 360L126 367L127 367L126 360M272 360L273 361L272 360M281.667 360.333L282.333 360.667L281.667 360.333z"/>
<path style="fill:#c9ae4f; stroke:none;" d="M436 360L439 370L440 370L436 360z"/>
<path style="fill:#efc022; stroke:none;" d="M64 361L63 367C76.5695 372.538 96.495 369.001 111 369C114.473 369 126.573 369.966 124.914 363.299C123.916 359.291 113.061 361 110 361L64 361z"/>
<path style="fill:#c9ae4f; stroke:none;" d="M260 369L270 361L260 369z"/>
<path style="fill:#6d5a1c; stroke:none;" d="M270 361L271 362L270 361M280 361L281 362L280 361z"/>
<path style="fill:#c9ae4f; stroke:none;" d="M337 361L338 362L337 361M444 361L446 370L447 370L444 361z"/>
<path style="fill:#6d5a1c; stroke:none;" d="M269 362L270 363L269 362M279 362L280 363L279 362M369.333 362.667L369.667 363.333L369.333 362.667M268 363L269 364L268 363M278 363L279 364L278 363M363.333 363.667L363.667 364.333L363.333 363.667M444.333 363.667L444.667 364.333L444.333 363.667M266.667 364.333L267.333 364.667L266.667 364.333M276 364L277 365L276 364z"/>
<path style="fill:#c9ae4f; stroke:none;" d="M369 364L370 365L369 364z"/>
<path style="fill:#6d5a1c; stroke:none;" d="M190.333 365.667L190.667 366.333L190.333 365.667M265 365L266 366L265 365M275 365L276 366L275 365M362 365L361 369L362 369L362 365M368 365L366 371L367 371L368 365z"/>
<path style="fill:#c9ae4f; stroke:none;" d="M55 366L56 367L55 366M209 366C213.378 372.433 225.087 369.997 232 370C234.419 370.001 239.44 369.202 241.079 371.545C243.755 375.371 233.442 374.999 232 375C222.798 375.004 210.638 377.548 204 370L203 370C206.571 379.801 225.458 376.018 234 376C236.739 375.994 244.72 376.32 243.11 371.299C242.084 368.101 236.501 369.001 234 369C225.066 368.996 217.345 369.409 209 366z"/>
<path style="fill:#6d5a1c; stroke:none;" d="M263 366L262 368L264 368L263 366M273 366L274 367L273 366z"/>
<path style="fill:#c9ae4f; stroke:none;" d="M344.333 366.667L344.667 367.333L344.333 366.667z"/>
<path style="fill:#6d5a1c; stroke:none;" d="M439.333 366.667L439.667 367.333L439.333 366.667M55 367L55 371L56 371L55 367M270 370L273 367L270 370M445 367L445 370L446 370L445 367z"/>
<path style="fill:#c9ae4f; stroke:none;" d="M54 368L55 374L56 374L54 368z"/>
<path style="fill:#6d5a1c; stroke:none;" d="M125 368L126 369L125 368M188.667 368.333L189.333 368.667L188.667 368.333M195 368L196 369L195 368z"/>
<path style="fill:#c9ae4f; stroke:none;" d="M202.333 368.667L202.667 369.333L202.333 368.667z"/>
<path style="fill:#6d5a1c; stroke:none;" d="M261 368L262 369L261 368z"/>
<path style="fill:#c9ae4f; stroke:none;" d="M343 368L341 373L343 368M368 368L369 369L368 368z"/>
<path style="fill:#6d5a1c; stroke:none;" d="M61.6667 369.333L62.3333 369.667L61.6667 369.333M121 369L121 370L124 370L121 369M186.667 369.333L187.333 369.667L186.667 369.333M211.667 369.333L212.333 369.667L211.667 369.333z"/>
<path style="fill:#c9ae4f; stroke:none;" d="M256 370L256 371L260 370L256 370z"/>
<path style="fill:#6d5a1c; stroke:none;" d="M333.667 369.333L334.333 369.667L333.667 369.333M183 370L184 371L183 370M194 370L195 371L194 370M241 370L242 371L241 370M258 370L259 371L258 370z"/>
<path style="fill:#c9ae4f; stroke:none;" d="M367 370L361 375L361 376C365.277 375.422 367.288 373.968 369 370L367 370z"/>
<path style="fill:#6d5a1c; stroke:none;" d="M440 370L440 373L441 373L440 370M182 371L182 374L183 374L182 371M193 371L194 372L193 371M242 371L242 374L243 374L242 371M257 371L258 375L259 375L257 371M360 371L360 374L361 374L360 371z"/>
<path style="fill:#c9ae4f; stroke:none;" d="M446 371C444.562 373.586 443.673 374.527 441 373L440 373C442.303 376.5 446.946 375.497 446 371z"/>
<path style="fill:#6d5a1c; stroke:none;" d="M127 374L130 372L127 374M190 374L193 372L190 374z"/>
<path style="fill:#c9ae4f; stroke:none;" d="M340 373L341 374L340 373z"/>
<path style="fill:#6d5a1c; stroke:none;" d="M365 373L366 374L365 373M445 373L446 374L445 373M56.6667 374.333L57.3333 374.667L56.6667 374.333M124.667 374.333L125.333 374.667L124.667 374.333z"/>
<path style="fill:#c9ae4f; stroke:none;" d="M126.667 374.333L127.333 374.667L126.667 374.333z"/>
<path style="fill:#6d5a1c; stroke:none;" d="M183 374L184 375L183 374M188.667 374.333L189.333 374.667L188.667 374.333M209 374L210 375L209 374M241 374L242 375L241 374z"/>
<path style="fill:#c9ae4f; stroke:none;" d="M256.667 374.333L257.333 374.667L256.667 374.333M338 374L339 375L338 374z"/>
<path style="fill:#6d5a1c; stroke:none;" d="M361.667 374.333L362.333 374.667L361.667 374.333M364 374L365 375L364 374M441.667 374.333L442.333 374.667L441.667 374.333M444 374L445 375L444 374z"/>
<path style="fill:#c9ae4f; stroke:none;" d="M56 375L56 376L126 376L104 375L56 375M258 375L258 376L338 376L313 375L258 375z"/>
<path style="fill:#6d5a1c; stroke:none;" d="M401 375L401 376L406 376L401 375z"/>
</svg>
